<svg id="visual" viewBox="0 0 960 300" width="960" height="300" xmlns="http://www.w3.org/2000/svg" xmlns:xlink="http://www.w3.org/1999/xlink" version="1.1"><rect x="0" y="0" width="960" height="300" fill="#1e1f1e"></rect><path d="M0 49L22.8 48.3C45.7 47.7 91.3 46.3 137 46.8C182.7 47.3 228.3 49.7 274 50.8C319.7 52 365.3 52 411.2 51.2C457 50.3 503 48.7 548.8 47C594.7 45.3 640.3 43.7 686 44.7C731.7 45.7 777.3 49.3 823 50.8C868.7 52.3 914.3 51.7 937.2 51.3L960 51L960 0L937.2 0C914.3 0 868.7 0 823 0C777.3 0 731.7 0 686 0C640.3 0 594.7 0 548.8 0C503 0 457 0 411.2 0C365.3 0 319.7 0 274 0C228.3 0 182.7 0 137 0C91.3 0 45.7 0 22.8 0L0 0Z" fill="#fc6c24"></path><path d="M0 31L22.8 32.3C45.7 33.7 91.3 36.3 137 37C182.7 37.7 228.3 36.3 274 35.7C319.7 35 365.3 35 411.2 34.8C457 34.7 503 34.3 548.8 35C594.7 35.7 640.3 37.3 686 37.8C731.7 38.3 777.3 37.7 823 36C868.7 34.3 914.3 31.7 937.2 30.3L960 29L960 0L937.2 0C914.3 0 868.7 0 823 0C777.3 0 731.7 0 686 0C640.3 0 594.7 0 548.8 0C503 0 457 0 411.2 0C365.3 0 319.7 0 274 0C228.3 0 182.7 0 137 0C91.3 0 45.7 0 22.8 0L0 0Z" fill="#b9320b"></path><path d="M0 28L22.8 26.8C45.7 25.7 91.3 23.3 137 21.7C182.7 20 228.3 19 274 19C319.7 19 365.3 20 411.2 20.5C457 21 503 21 548.8 22.2C594.7 23.3 640.3 25.7 686 26C731.7 26.3 777.3 24.7 823 24.7C868.7 24.7 914.3 26.3 937.2 27.2L960 28L960 0L937.2 0C914.3 0 868.7 0 823 0C777.3 0 731.7 0 686 0C640.3 0 594.7 0 548.8 0C503 0 457 0 411.2 0C365.3 0 319.7 0 274 0C228.3 0 182.7 0 137 0C91.3 0 45.7 0 22.8 0L0 0Z" fill="#780000"></path><path d="M0 7L22.8 7.3C45.7 7.7 91.3 8.3 137 8.7C182.7 9 228.3 9 274 10C319.7 11 365.3 13 411.2 13.3C457 13.7 503 12.3 548.8 12.2C594.7 12 640.3 13 686 13.7C731.7 14.3 777.3 14.7 823 14.7C868.7 14.7 914.3 14.3 937.2 14.2L960 14L960 0L937.2 0C914.3 0 868.7 0 823 0C777.3 0 731.7 0 686 0C640.3 0 594.7 0 548.8 0C503 0 457 0 411.2 0C365.3 0 319.7 0 274 0C228.3 0 182.7 0 137 0C91.3 0 45.7 0 22.8 0L0 0Z" fill="#000000"></path></svg>